<svg width="20" height="20" viewBox="0 0 20 20" fill="none" xmlns="http://www.w3.org/2000/svg">
<g clip-path="url(#clip0_248_4579)">
<path d="M18.922 6.07753C18.7658 5.9213 18.5538 5.83354 18.3329 5.83354C18.1119 5.83354 17.9 5.9213 17.7437 6.07753L9.99953 13.8217L2.25536 6.07753C2.17849 5.99793 2.08653 5.93445 1.98486 5.89078C1.88319 5.8471 1.77384 5.82411 1.66319 5.82315C1.55254 5.82219 1.44281 5.84327 1.3404 5.88517C1.23799 5.92708 1.14494 5.98895 1.0667 6.0672C0.988453 6.14544 0.926575 6.23848 0.884674 6.3409C0.842773 6.44331 0.82169 6.55304 0.822651 6.66369C0.823612 6.77434 0.846601 6.88369 0.890276 6.98536C0.93395 7.08703 0.997435 7.17899 1.07703 7.25586L9.41036 15.5892C9.56663 15.7454 9.77856 15.8332 9.99953 15.8332C10.2205 15.8332 10.4324 15.7454 10.5887 15.5892L18.922 7.25586C19.0783 7.09959 19.166 6.88766 19.166 6.66669C19.166 6.44572 19.0783 6.2338 18.922 6.07753Z" fill="#212121"/>
</g>
<defs>
<clipPath id="clip0_248_4579">
<rect width="20" height="20" fill="white" transform="translate(20) rotate(90)"/>
</clipPath>
</defs>
</svg>
