<svg width="23" height="13" viewBox="0 0 23 13" fill="none" xmlns="http://www.w3.org/2000/svg">
<path d="M0.292786 11.707C0.480314 11.8945 0.734622 11.9998 0.999786 11.9998C1.26495 11.9998 1.51926 11.8945 1.70679 11.707L10.9998 2.41404L20.2928 11.707C20.385 11.8026 20.4954 11.8787 20.6174 11.9311C20.7394 11.9836 20.8706 12.0111 21.0034 12.0123C21.1362 12.0134 21.2678 11.9881 21.3907 11.9379C21.5136 11.8876 21.6253 11.8133 21.7192 11.7194C21.8131 11.6255 21.8873 11.5139 21.9376 11.391C21.9879 11.2681 22.0132 11.1364 22.012 11.0036C22.0109 10.8709 21.9833 10.7396 21.9309 10.6176C21.8785 10.4956 21.8023 10.3853 21.7068 10.293L11.7068 0.29304C11.5193 0.105568 11.265 0.000254139 10.9998 0.00025415C10.7346 0.000254162 10.4803 0.105568 10.2928 0.29304L0.292786 10.293C0.105315 10.4806 -5.58392e-08 10.7349 -4.42485e-08 11C-3.26578e-08 11.2652 0.105315 11.5195 0.292786 11.707Z" fill="#212121"/>
</svg>
