<svg width="20" height="24" viewBox="0 0 20 24" fill="none" xmlns="http://www.w3.org/2000/svg">
<g clip-path="url(#clip0_134_1239)">
<path fill-rule="evenodd" clip-rule="evenodd" d="M3.04834 7.32176C3.04834 6.99688 3.3117 6.73352 3.63658 6.73352H14.5278V15.5465C14.5278 15.8714 14.2644 16.1348 13.9396 16.1348C13.6147 16.1348 13.3513 15.8714 13.3513 15.5465V7.90999H3.63658C3.3117 7.90999 3.04834 7.64663 3.04834 7.32176Z" fill="white"/>
<path fill-rule="evenodd" clip-rule="evenodd" d="M14.2424 19.5487C15.0931 19.5487 15.7932 18.8538 15.7932 17.9835C15.7932 17.1133 15.0931 16.4184 14.2424 16.4184C13.3917 16.4184 12.6916 17.1133 12.6916 17.9835C12.6916 18.8538 13.3917 19.5487 14.2424 19.5487ZM14.2424 20.7251C15.7486 20.7251 16.9697 19.4977 16.9697 17.9835C16.9697 16.4694 15.7486 15.2419 14.2424 15.2419C12.7362 15.2419 11.5151 16.4694 11.5151 17.9835C11.5151 19.4977 12.7362 20.7251 14.2424 20.7251Z" fill="white"/>
<path fill-rule="evenodd" clip-rule="evenodd" d="M5.15158 19.5487C6.00224 19.5487 6.70236 18.8538 6.70236 17.9835C6.70236 17.1133 6.00224 16.4184 5.15158 16.4184C4.30091 16.4184 3.60079 17.1133 3.60079 17.9835C3.60079 18.8538 4.30091 19.5487 5.15158 19.5487ZM5.15158 20.7251C6.6578 20.7251 7.87883 19.4977 7.87883 17.9835C7.87883 16.4694 6.6578 15.2419 5.15158 15.2419C3.64535 15.2419 2.42432 16.4694 2.42432 17.9835C2.42432 19.4977 3.64535 20.7251 5.15158 20.7251Z" fill="white"/>
<path fill-rule="evenodd" clip-rule="evenodd" d="M7.29053 17.9835C7.29053 17.6586 7.55389 17.3953 7.87876 17.3953H11.8181C12.143 17.3953 12.4064 17.6586 12.4064 17.9835C12.4064 18.3084 12.143 18.5717 11.8181 18.5717H7.87876C7.55389 18.5717 7.29053 18.3084 7.29053 17.9835Z" fill="white"/>
<path fill-rule="evenodd" clip-rule="evenodd" d="M1.22949 13.4142C1.22949 13.0893 1.49285 12.8259 1.81773 12.8259H9.39345C9.71832 12.8259 9.98169 13.0893 9.98169 13.4142C9.98169 13.739 9.71832 14.0024 9.39345 14.0024H1.81773C1.49285 14.0024 1.22949 13.739 1.22949 13.4142Z" fill="white"/>
<path fill-rule="evenodd" clip-rule="evenodd" d="M0.624023 10.368C0.624023 10.0431 0.887385 9.77979 1.21226 9.77979L6.66678 9.77979C6.99165 9.77979 7.25501 10.0431 7.25501 10.368C7.25501 10.6929 6.99165 10.9563 6.66678 10.9563L1.21226 10.9563C0.887385 10.9563 0.624023 10.6929 0.624023 10.368Z" fill="white"/>
<path fill-rule="evenodd" clip-rule="evenodd" d="M13.8882 8.84483C13.8882 8.51995 14.1515 8.25659 14.4764 8.25659H16.703L18.701 13.6126V18.5779H16.9006C16.5758 18.5779 16.3124 18.3146 16.3124 17.9897C16.3124 17.6648 16.5758 17.4014 16.9006 17.4014H17.5245V13.8249L15.8862 9.43306H14.4764C14.1515 9.43306 13.8882 9.1697 13.8882 8.84483Z" fill="white"/>
<path fill-rule="evenodd" clip-rule="evenodd" d="M13.6538 13.4142C13.6538 13.0893 13.9172 12.8259 14.242 12.8259H17.5754C17.9002 12.8259 18.1636 13.0893 18.1636 13.4142C18.1636 13.739 17.9002 14.0024 17.5754 14.0024H14.242C13.9172 14.0024 13.6538 13.739 13.6538 13.4142Z" fill="white"/>
<path d="M1.12707 5.63819C1.50872 5.63819 1.81811 5.32413 1.81811 4.93671C1.81811 4.54929 1.50872 4.23523 1.12707 4.23523C0.745423 4.23523 0.436035 4.54929 0.436035 4.93671C0.436035 5.32413 0.745423 5.63819 1.12707 5.63819Z" fill="white"/>
<path d="M19.3092 10.2478C19.6909 10.2478 20.0002 9.93375 20.0002 9.54633C20.0002 9.15891 19.6909 8.84485 19.3092 8.84485C18.9276 8.84485 18.6182 9.15891 18.6182 9.54633C18.6182 9.93375 18.9276 10.2478 19.3092 10.2478Z" fill="white"/>
</g>
<defs>
<clipPath id="clip0_134_1239">
<rect width="20" height="23.3333" fill="white" transform="translate(0 0.333008)"/>
</clipPath>
</defs>
</svg>
