<svg width="20" height="24" viewBox="0 0 20 24" fill="none" xmlns="http://www.w3.org/2000/svg">
<path fill-rule="evenodd" clip-rule="evenodd" d="M3.89786 19.2746H16.1021C16.2179 19.2746 16.3118 19.1807 16.3118 19.0649V8.34219C16.3118 8.28415 16.2878 8.22871 16.2454 8.18906L11.8498 4.07773C11.811 4.0414 11.7598 4.02119 11.7066 4.02119H3.89786C3.78205 4.02119 3.68818 4.11506 3.68818 4.23086V19.0649C3.68818 19.1807 3.78205 19.2746 3.89786 19.2746ZM3.89786 2.83301C3.12584 2.83301 2.5 3.45885 2.5 4.23086V19.0649C2.5 19.8369 3.12584 20.4628 3.89786 20.4628H16.1021C16.8742 20.4628 17.5 19.8369 17.5 19.0649V8.34219C17.5 7.95525 17.3396 7.58562 17.057 7.3213L12.6614 3.20997C12.4025 2.96776 12.0611 2.83301 11.7066 2.83301H3.89786Z" fill="white"/>
<path fill-rule="evenodd" clip-rule="evenodd" d="M5.88477 15.7677C5.88477 15.4396 6.15075 15.1736 6.47885 15.1736H13.683C14.0111 15.1736 14.2771 15.4396 14.2771 15.7677C14.2771 16.0958 14.0111 16.3618 13.683 16.3618H6.47885C6.15075 16.3618 5.88477 16.0958 5.88477 15.7677Z" fill="white"/>
<path fill-rule="evenodd" clip-rule="evenodd" d="M5.88477 12.9687C5.88477 12.6406 6.15075 12.3746 6.47885 12.3746H13.683C14.0111 12.3746 14.2771 12.6406 14.2771 12.9687C14.2771 13.2968 14.0111 13.5628 13.683 13.5628H6.47885C6.15075 13.5628 5.88477 13.2968 5.88477 12.9687Z" fill="white"/>
<path fill-rule="evenodd" clip-rule="evenodd" d="M5.88477 10.1697C5.88477 9.84154 6.15075 9.57556 6.47885 9.57556H9.43292C9.76103 9.57556 10.027 9.84154 10.027 10.1697C10.027 10.4978 9.76103 10.7637 9.43292 10.7637H6.47885C6.15075 10.7637 5.88477 10.4978 5.88477 10.1697Z" fill="white"/>
<path fill-rule="evenodd" clip-rule="evenodd" d="M5.88477 7.3707C5.88477 7.04259 6.15075 6.77661 6.47885 6.77661H9.43292C9.76103 6.77661 10.027 7.04259 10.027 7.3707C10.027 7.69881 9.76103 7.96479 9.43292 7.96479H6.47885C6.15075 7.96479 5.88477 7.69881 5.88477 7.3707Z" fill="white"/>
<path fill-rule="evenodd" clip-rule="evenodd" d="M11.8724 2.96729C12.2005 2.96729 12.4665 3.23327 12.4665 3.56137V7.71952H16.7531C17.0812 7.71952 17.3472 7.9855 17.3472 8.31361C17.3472 8.64172 17.0812 8.9077 16.7531 8.9077H11.2783V3.56137C11.2783 3.23327 11.5443 2.96729 11.8724 2.96729Z" fill="white"/>
</svg>
