<svg width="20" height="24" viewBox="0 0 20 24" fill="none" xmlns="http://www.w3.org/2000/svg">
<path fill-rule="evenodd" clip-rule="evenodd" d="M10.2061 11.2745C11.5646 11.2745 12.666 10.1732 12.666 8.81463C12.666 7.4561 11.5646 6.35479 10.2061 6.35479C8.84758 6.35479 7.74627 7.4561 7.74627 8.81463C7.74627 10.1732 8.84758 11.2745 10.2061 11.2745ZM10.2061 12.4133C12.1936 12.4133 13.8048 10.8021 13.8048 8.81463C13.8048 6.82713 12.1936 5.21594 10.2061 5.21594C8.21861 5.21594 6.60742 6.82713 6.60742 8.81463C6.60742 10.8021 8.21861 12.4133 10.2061 12.4133Z" fill="white"/>
<path fill-rule="evenodd" clip-rule="evenodd" d="M8.20004 2.2355C9.13347 0.810009 11.2226 0.81001 12.156 2.2355C12.4321 2.65712 12.9382 2.86674 13.4315 2.76382C15.0995 2.41589 16.5768 3.89314 16.2289 5.56114C16.126 6.0545 16.3356 6.56055 16.7572 6.83664C18.1827 7.77007 18.1827 9.85922 16.7572 10.7926C16.3356 11.0687 16.126 11.5748 16.2289 12.0681C16.5768 13.7361 15.0995 15.2134 13.4315 14.8655C12.9382 14.7625 12.4321 14.9722 12.156 15.3938C11.2226 16.8193 9.13347 16.8193 8.20004 15.3938C7.92396 14.9722 7.4179 14.7625 6.92455 14.8655C5.25654 15.2134 3.77929 13.7361 4.12723 12.0681C4.23014 11.5748 4.02052 11.0687 3.5989 10.7926C2.17341 9.85922 2.17341 7.77007 3.5989 6.83664C4.02052 6.56055 4.23014 6.0545 4.12723 5.56114C3.77929 3.89314 5.25654 2.41589 6.92455 2.76382C7.4179 2.86674 7.92396 2.65712 8.20004 2.2355ZM11.2033 2.85938C10.7195 2.12051 9.63662 2.12051 9.1528 2.85938C8.62015 3.67281 7.64382 4.07722 6.692 3.87867C5.82743 3.69833 5.06173 4.46402 5.24208 5.32859C5.44062 6.28042 5.03622 7.25675 4.22278 7.78939C3.48391 8.27321 3.48391 9.35607 4.22278 9.83989C5.03622 10.3725 5.44062 11.3489 5.24208 12.3007C5.06173 13.1653 5.82743 13.931 6.692 13.7506C7.64382 13.5521 8.62015 13.9565 9.1528 14.7699C9.63662 15.5088 10.7195 15.5088 11.2033 14.7699C11.7359 13.9565 12.7123 13.5521 13.6641 13.7506C14.5287 13.931 15.2944 13.1653 15.114 12.3007C14.9155 11.3489 15.3199 10.3725 16.1333 9.83989C16.8722 9.35607 16.8722 8.27321 16.1333 7.78939C15.3199 7.25675 14.9155 6.28042 15.114 5.32859C15.2944 4.46402 14.5287 3.69833 13.6641 3.87867C12.7123 4.07722 11.7359 3.67281 11.2033 2.85938Z" fill="white"/>
<path fill-rule="evenodd" clip-rule="evenodd" d="M6.00319 14.0413C6.27626 14.1973 6.37116 14.5451 6.21516 14.8182L4.20521 18.3365L7.15409 18.5649L8.47654 20.0616L9.23582 15.9546C9.29299 15.6453 9.59003 15.441 9.89927 15.4982C10.2085 15.5553 10.4129 15.8524 10.3557 16.1616L9.17132 22.5679L6.60615 19.6647L2.32429 19.3331L5.2263 14.2533C5.3823 13.9802 5.73012 13.8853 6.00319 14.0413Z" fill="white"/>
<path fill-rule="evenodd" clip-rule="evenodd" d="M13.9963 14.0413C13.7233 14.1973 13.6284 14.5451 13.7843 14.8182L15.7943 18.3365L12.8454 18.5649L11.523 20.0616L10.7637 15.9546C10.7065 15.6453 10.4095 15.441 10.1002 15.4982C9.79099 15.5553 9.58665 15.8524 9.64382 16.1616L10.8282 22.5679L13.3934 19.6647L17.6752 19.3331L14.7732 14.2533C14.6172 13.9802 14.2694 13.8853 13.9963 14.0413Z" fill="white"/>
</svg>
