<svg width="11" height="11" viewBox="0 0 11 11" fill="none" xmlns="http://www.w3.org/2000/svg">
<path d="M2.21 10L1.17 8.96L9.4965 0.64L10.5365 1.6865L2.21 10ZM8.5865 10.195C8.1575 10.195 7.76533 10.091 7.41 9.883C7.059 9.67067 6.77733 9.389 6.565 9.038C6.35267 8.68267 6.2465 8.28833 6.2465 7.855C6.2465 7.43033 6.35483 7.04033 6.5715 6.685C6.78817 6.32967 7.07417 6.04583 7.4295 5.8335C7.78483 5.62117 8.1705 5.515 8.5865 5.515C9.0155 5.515 9.40767 5.62117 9.763 5.8335C10.1183 6.0415 10.4 6.32317 10.608 6.6785C10.8203 7.0295 10.9265 7.42167 10.9265 7.855C10.9265 8.28833 10.8203 8.68267 10.608 9.038C10.4 9.389 10.1183 9.67067 9.763 9.883C9.40767 10.091 9.0155 10.195 8.5865 10.195ZM8.5865 8.856C8.76417 8.856 8.92883 8.8105 9.0805 8.7195C9.2365 8.6285 9.36 8.50717 9.451 8.3555C9.542 8.20383 9.5875 8.037 9.5875 7.855C9.5875 7.673 9.542 7.50617 9.451 7.3545C9.36 7.20283 9.2365 7.0815 9.0805 6.9905C8.92883 6.8995 8.76417 6.854 8.5865 6.854C8.4045 6.854 8.23767 6.8995 8.086 6.9905C7.93433 7.0815 7.81083 7.20283 7.7155 7.3545C7.6245 7.50617 7.579 7.673 7.579 7.855C7.579 8.037 7.6245 8.20383 7.7155 8.3555C7.81083 8.50717 7.93433 8.6285 8.086 8.7195C8.23767 8.8105 8.4045 8.856 8.5865 8.856ZM3.12 5.125C2.691 5.125 2.29883 5.021 1.9435 4.813C1.58817 4.60067 1.30433 4.319 1.092 3.968C0.884 3.61267 0.78 3.21833 0.78 2.785C0.78 2.36033 0.888333 1.97033 1.105 1.615C1.32167 1.25967 1.60767 0.975833 1.963 0.763499C2.31833 0.551166 2.704 0.445 3.12 0.445C3.549 0.445 3.939 0.551166 4.29 0.763499C4.64533 0.9715 4.92917 1.25317 5.1415 1.6085C5.35383 1.9595 5.46 2.35167 5.46 2.785C5.46 3.21833 5.35383 3.61267 5.1415 3.968C4.92917 4.319 4.64533 4.60067 4.29 4.813C3.939 5.021 3.549 5.125 3.12 5.125ZM3.12 3.786C3.302 3.786 3.46883 3.7405 3.6205 3.6495C3.77217 3.5585 3.8935 3.43717 3.9845 3.2855C4.0755 3.13383 4.121 2.967 4.121 2.785C4.121 2.603 4.0755 2.43617 3.9845 2.2845C3.8935 2.13283 3.77217 2.0115 3.6205 1.9205C3.46883 1.8295 3.302 1.784 3.12 1.784C2.938 1.784 2.77117 1.8295 2.6195 1.9205C2.46783 2.0115 2.3465 2.13283 2.2555 2.2845C2.1645 2.43617 2.119 2.603 2.119 2.785C2.119 2.967 2.1645 3.13383 2.2555 3.2855C2.3465 3.43717 2.46783 3.5585 2.6195 3.6495C2.77117 3.7405 2.938 3.786 3.12 3.786Z" fill="#00A147"/>
</svg>
