<svg width="22" height="22" viewBox="0 0 22 22" fill="none" xmlns="http://www.w3.org/2000/svg">
<path fill-rule="evenodd" clip-rule="evenodd" d="M5.77124 1.62447C6.33858 1.05713 7.10805 0.738403 7.91039 0.738403H13.9608C14.7631 0.738403 15.5326 1.05713 16.1 1.62447C16.6673 2.1918 16.986 2.96128 16.986 3.76361V6.78882H17.9944C18.7968 6.78882 19.5662 7.10755 20.1336 7.67489C20.7009 8.24222 21.0196 9.0117 21.0196 9.81403V13.8476C21.0196 14.65 20.7009 15.4195 20.1336 15.9868C19.5662 16.5541 18.7968 16.8729 17.9944 16.8729H16.986V17.8813C16.986 18.6836 16.6673 19.4531 16.1 20.0204C15.5326 20.5877 14.7631 20.9065 13.9608 20.9065H7.91039C7.10805 20.9065 6.33858 20.5877 5.77124 20.0204C5.2039 19.4531 4.88518 18.6836 4.88518 17.8813V16.8729H3.87677C3.07444 16.8729 2.30496 16.5541 1.73763 15.9868C1.17029 15.4195 0.851562 14.65 0.851562 13.8476V9.81403C0.851562 9.0117 1.17029 8.24222 1.73763 7.67489C2.30496 7.10755 3.07444 6.78882 3.87677 6.78882H4.88518V3.76361C4.88518 2.96128 5.2039 2.1918 5.77124 1.62447ZM6.90198 6.78882H14.9692V3.76361C14.9692 3.49617 14.863 3.23968 14.6739 3.05056C14.4847 2.86145 14.2283 2.75521 13.9608 2.75521H7.91039C7.64294 2.75521 7.38645 2.86145 7.19734 3.05056C7.00822 3.23968 6.90198 3.49617 6.90198 3.76361V6.78882ZM3.87677 8.80563C3.60933 8.80563 3.35284 8.91187 3.16372 9.10098C2.97461 9.2901 2.86837 9.54659 2.86837 9.81403V13.8476C2.86837 14.1151 2.97461 14.3716 3.16372 14.5607C3.35284 14.7498 3.60933 14.856 3.87677 14.856H4.88518V13.8476C4.88518 13.0453 5.2039 12.2758 5.77124 11.7085C6.33858 11.1412 7.10805 10.8224 7.91039 10.8224H13.9608C14.7631 10.8224 15.5326 11.1412 16.1 11.7085C16.6673 12.2758 16.986 13.0453 16.986 13.8476V14.856H17.9944C18.2619 14.856 18.5184 14.7498 18.7075 14.5607C18.8966 14.3716 19.0028 14.1151 19.0028 13.8476V9.81403C19.0028 9.54659 18.8966 9.2901 18.7075 9.10098C18.5184 8.91187 18.2619 8.80563 17.9944 8.80563H3.87677ZM14.9692 13.8476C14.9692 13.5802 14.863 13.3237 14.6739 13.1346C14.4847 12.9455 14.2282 12.8392 13.9608 12.8392H7.91039C7.64294 12.8392 7.38645 12.9455 7.19734 13.1346C7.00822 13.3237 6.90198 13.5802 6.90198 13.8476V17.8813C6.90198 18.1487 7.00822 18.4052 7.19734 18.5943C7.38645 18.7834 7.64294 18.8897 7.91039 18.8897H13.9608C14.2282 18.8897 14.4847 18.7834 14.6739 18.5943C14.863 18.4052 14.9692 18.1487 14.9692 17.8813V13.8476Z" fill="#ACACAC"/>
</svg>
