<svg width="140" height="28" viewBox="0 0 140 28" fill="none" xmlns="http://www.w3.org/2000/svg">
<path d="M24.673 13.2338C25.7437 12.4239 25.1709 10.7172 23.8284 10.7172H18.3459C17.732 10.7172 17.1897 10.3173 17.0084 9.73075L15.3375 4.32637C14.9309 3.01105 13.0691 3.01106 12.6625 4.32637L10.9916 9.73075C10.8103 10.3173 10.268 10.7172 9.65411 10.7172H4.12961C2.79142 10.7172 2.21592 12.4148 3.27822 13.2286L7.86136 16.7396C8.32552 17.0952 8.51981 17.7018 8.34863 18.2609L6.64629 23.8207C6.24749 25.1232 7.755 26.1704 8.83634 25.342L13.1486 22.0384C13.651 21.6536 14.349 21.6536 14.8514 22.0384L19.1474 25.3295C20.2302 26.159 21.7392 25.1079 21.3363 23.8046L19.61 18.2206C19.4359 17.6577 19.633 17.046 20.1029 16.6906L24.673 13.2338Z" fill="#FFAD33"/>
<path d="M52.673 13.2338C53.7437 12.4239 53.1709 10.7172 51.8284 10.7172H46.3459C45.732 10.7172 45.1897 10.3173 45.0084 9.73075L43.3375 4.32637C42.9309 3.01105 41.0691 3.01106 40.6625 4.32637L38.9916 9.73075C38.8103 10.3173 38.268 10.7172 37.6541 10.7172H32.1296C30.7914 10.7172 30.2159 12.4148 31.2782 13.2286L35.8614 16.7396C36.3255 17.0952 36.5198 17.7018 36.3486 18.2609L34.6463 23.8207C34.2475 25.1232 35.755 26.1704 36.8363 25.342L41.1486 22.0384C41.651 21.6536 42.349 21.6536 42.8514 22.0384L47.1474 25.3295C48.2302 26.159 49.7392 25.1079 49.3363 23.8046L47.61 18.2206C47.4359 17.6577 47.633 17.046 48.1029 16.6906L52.673 13.2338Z" fill="#FFAD33"/>
<path d="M80.673 13.2338C81.7437 12.4239 81.1709 10.7172 79.8284 10.7172H74.3459C73.732 10.7172 73.1897 10.3173 73.0084 9.73075L71.3375 4.32637C70.9309 3.01105 69.0691 3.01106 68.6625 4.32637L66.9916 9.73075C66.8103 10.3173 66.268 10.7172 65.6541 10.7172H60.1296C58.7914 10.7172 58.2159 12.4148 59.2782 13.2286L63.8614 16.7396C64.3255 17.0952 64.5198 17.7018 64.3486 18.2609L62.6463 23.8207C62.2475 25.1232 63.755 26.1704 64.8363 25.342L69.1486 22.0384C69.651 21.6536 70.349 21.6536 70.8514 22.0384L75.1474 25.3295C76.2302 26.159 77.7392 25.1079 77.3363 23.8046L75.61 18.2206C75.4359 17.6577 75.633 17.046 76.1029 16.6906L80.673 13.2338Z" fill="#FFAD33"/>
<path d="M108.673 13.2338C109.744 12.4239 109.171 10.7172 107.828 10.7172H102.346C101.732 10.7172 101.19 10.3173 101.008 9.73075L99.3375 4.32637C98.9309 3.01105 97.0691 3.01106 96.6625 4.32637L94.9916 9.73075C94.8103 10.3173 94.268 10.7172 93.6541 10.7172H88.1296C86.7914 10.7172 86.2159 12.4148 87.2782 13.2286L91.8614 16.7396C92.3255 17.0952 92.5198 17.7018 92.3486 18.2609L90.6463 23.8207C90.2475 25.1232 91.755 26.1704 92.8363 25.342L97.1486 22.0384C97.651 21.6536 98.349 21.6536 98.8514 22.0384L103.147 25.3295C104.23 26.159 105.739 25.1079 105.336 23.8046L103.61 18.2206C103.436 17.6577 103.633 17.046 104.103 16.6906L108.673 13.2338Z" fill="#FFAD33"/>
<path opacity="0.3" d="M136.673 13.2338C137.744 12.4239 137.171 10.7172 135.828 10.7172H130.346C129.732 10.7172 129.19 10.3173 129.008 9.73075L127.338 4.32637C126.931 3.01105 125.069 3.01106 124.662 4.32637L122.992 9.73075C122.81 10.3173 122.268 10.7172 121.654 10.7172H116.13C114.791 10.7172 114.216 12.4148 115.278 13.2286L119.861 16.7396C120.326 17.0952 120.52 17.7018 120.349 18.2609L118.646 23.8207C118.247 25.1232 119.755 26.1704 120.836 25.342L125.149 22.0384C125.651 21.6536 126.349 21.6536 126.851 22.0384L131.147 25.3295C132.23 26.159 133.739 25.1079 133.336 23.8046L131.61 18.2206C131.436 17.6577 131.633 17.046 132.103 16.6906L136.673 13.2338Z" fill="#8A8A8A"/>
</svg>
