<svg width="20" height="24" viewBox="0 0 20 24" fill="none" xmlns="http://www.w3.org/2000/svg">
<path d="M19.0354 16.827L11.3985 9.19013C11.6186 8.1932 11.5581 7.15477 11.2237 6.19013C10.8893 5.2255 10.2941 4.37241 9.50424 3.72557C8.71434 3.07873 7.76064 2.66346 6.74901 2.52587C5.73739 2.38827 4.70741 2.53372 3.77345 2.94609L2.97583 3.29728L6.17821 6.49966L4.49964 8.18418L1.29726 4.9818L0.946073 5.77347C0.531354 6.70737 0.384109 7.73809 0.520748 8.75075C0.657388 9.76342 1.07254 10.7183 1.71995 11.5088C2.36736 12.2994 3.22158 12.8947 4.18742 13.2284C5.15326 13.562 6.19278 13.6209 7.19012 13.3985L14.827 21.0354C14.9376 21.1461 15.0689 21.2339 15.2134 21.2938C15.3579 21.3537 15.5128 21.3845 15.6693 21.3845C15.8257 21.3845 15.9806 21.3537 16.1252 21.2938C16.2697 21.2339 16.401 21.1461 16.5115 21.0354L19.0354 18.5116C19.146 18.401 19.2338 18.2697 19.2938 18.1252C19.3537 17.9807 19.3845 17.8257 19.3845 17.6693C19.3845 17.5129 19.3537 17.3579 19.2938 17.2134C19.2338 17.0689 19.146 16.9376 19.0354 16.827ZM15.6663 20.1961L7.54726 12.0711L7.20798 12.1663C6.56187 12.3552 5.88061 12.3908 5.21836 12.2702C4.5561 12.1496 3.93112 11.8761 3.39308 11.4716C2.85505 11.0671 2.41881 10.5426 2.11905 9.93986C1.81929 9.33714 1.66427 8.6728 1.66631 7.99966C1.66558 7.70371 1.6955 7.40848 1.7556 7.1187L4.49964 9.86275L7.86869 6.4937L5.12464 3.75561C5.85674 3.60193 6.61616 3.64065 7.32883 3.86799C8.0415 4.09534 8.68306 4.50354 9.19092 5.05277C9.69878 5.602 10.0556 6.27351 10.2265 7.00176C10.3975 7.73001 10.3767 8.49015 10.1663 9.20799L10.0711 9.54728L18.1961 17.6723L15.6663 20.1961Z" fill="white"/>
<path d="M15.9813 17.9587C16.2835 17.6565 16.2835 17.1665 15.9813 16.8643C15.6792 16.5621 15.1892 16.5621 14.887 16.8643C14.5848 17.1665 14.5848 17.6565 14.887 17.9587C15.1892 18.2609 15.6791 18.2609 15.9813 17.9587Z" fill="white"/>
<path d="M17.7814 7.06636C18.1903 7.06636 18.5218 6.73162 18.5218 6.3187C18.5218 5.90578 18.1903 5.57104 17.7814 5.57104C17.3725 5.57104 17.041 5.90578 17.041 6.3187C17.041 6.73162 17.3725 7.06636 17.7814 7.06636Z" fill="white"/>
<path d="M3.73226 18.7766C4.49722 18.7766 5.11735 18.1504 5.11735 17.3779C5.11735 16.6055 4.49722 15.9792 3.73226 15.9792C2.96729 15.9792 2.34717 16.6055 2.34717 17.3779C2.34717 18.1504 2.96729 18.7766 3.73226 18.7766Z" fill="white"/>
</svg>
