<svg width="18" height="20" viewBox="0 0 18 20" fill="none" xmlns="http://www.w3.org/2000/svg">
<g clip-path="url(#clip0_134_1213)">
<path d="M14.3134 13.8755C15.0568 13.8755 15.6859 14.1486 16.2006 14.6948C16.7153 15.2411 16.9727 15.8907 16.9727 16.6436C16.9727 17.3966 16.7153 18.0462 16.2006 18.5924C15.6859 19.1387 15.0568 19.4118 14.3134 19.4118C13.5699 19.4118 12.9408 19.1387 12.4261 18.5924C11.9114 18.0462 11.6541 17.3892 11.6541 16.6215C11.6541 16.4443 11.6684 16.2376 11.697 16.0014L5.22024 12.1038C4.67694 12.6058 4.04786 12.8568 3.33299 12.8568C2.56093 12.8568 1.9104 12.5836 1.3814 12.0374C0.852392 11.4911 0.587891 10.8194 0.587891 10.0222C0.587891 9.22494 0.852392 8.55319 1.3814 8.00694C1.9104 7.46069 2.56093 7.18756 3.33299 7.18756C4.04786 7.18756 4.67694 7.43855 5.22024 7.94051L11.6541 4.08722C11.5969 3.82147 11.5683 3.60002 11.5683 3.42286C11.5683 2.62563 11.8328 1.95389 12.3618 1.40763C12.8908 0.861383 13.5413 0.588257 14.3134 0.588257C15.0854 0.588257 15.736 0.861383 16.265 1.40763C16.794 1.95389 17.0585 2.61825 17.0585 3.40071C17.0585 4.18318 16.794 4.85492 16.265 5.41594C15.736 5.97695 15.0854 6.25746 14.3134 6.25746C13.5985 6.25746 12.9694 5.99172 12.4261 5.46023L5.9923 9.35781C6.04949 9.62355 6.07809 9.845 6.07809 10.0222C6.07809 10.1993 6.04949 10.4208 5.9923 10.6865L12.5119 14.5841C13.0266 14.1117 13.6271 13.8755 14.3134 13.8755Z" fill="#ACACAC"/>
</g>
<defs>
<clipPath id="clip0_134_1213">
<rect width="16.4706" height="18.8235" fill="white" transform="translate(0.587891 0.588257)"/>
</clipPath>
</defs>
</svg>
