<svg width="158" height="44" viewBox="0 0 158 44" fill="none" xmlns="http://www.w3.org/2000/svg">
<path fill-rule="evenodd" clip-rule="evenodd" d="M6.31645 9.0537L7.66683 9.80194C8.25625 9.34419 8.87646 8.92606 9.52746 8.55634L9.35151 7.01585C10.2884 6.52289 11.2781 6.10916 12.303 5.78785L13.2663 6.99824C13.9833 6.80018 14.7223 6.65493 15.4788 6.5581L15.9055 5.07042C16.4333 5.02201 16.9656 5 17.5066 5C18.0476 5 18.5799 5.02641 19.1077 5.07042L19.53 6.5581C20.2821 6.65053 21.0167 6.80018 21.7337 6.99384L22.697 5.77905C23.7263 6.10035 24.7116 6.51408 25.6485 7.00704L25.4725 8.54313C26.1235 8.91725 26.7481 9.33539 27.3376 9.79313L28.6879 9.04049C29.5061 9.72711 30.2671 10.4842 30.9489 11.3028L30.2011 12.654C30.6585 13.2438 31.0764 13.8688 31.4503 14.5202L32.9854 14.3442C33.4781 15.2817 33.8915 16.272 34.2126 17.2975L33.003 18.2614C33.1966 18.9789 33.3461 19.7139 33.4385 20.4665L34.9252 20.8935C34.9736 21.4217 35 21.9542 35 22.4956C35 23.037 34.9736 23.5695 34.9252 24.0933L33.4429 24.5202C33.3505 25.2773 33.201 26.0167 33.003 26.7342L34.2126 27.6981C33.8915 28.728 33.4825 29.7183 32.9854 30.6558L31.4459 30.4798C31.072 31.1312 30.6585 31.7518 30.2011 32.3416L30.9533 33.6928C30.2671 34.5158 29.5105 35.2729 28.6879 35.9595L27.3376 35.2113C26.7481 35.669 26.1279 36.0827 25.4769 36.4569L25.6529 37.993C24.716 38.4859 23.7263 38.8996 22.697 39.221L21.7337 38.0106C21.0211 38.2042 20.2865 38.3495 19.5344 38.4463L19.1077 39.9296C18.5799 39.978 18.0476 40 17.5022 40C16.9612 40 16.4289 39.9736 15.9011 39.9296L15.4744 38.4463C14.7223 38.3495 13.9877 38.2042 13.2707 38.0106L12.3074 39.221C11.2781 38.8996 10.2884 38.4859 9.34712 37.993L9.52306 36.4569C8.87646 36.0827 8.25625 35.669 7.66683 35.2113L6.31645 35.9639C5.49391 35.2773 4.73294 34.5203 4.04675 33.6928L4.79452 32.3416C4.34146 31.7518 3.92359 31.1356 3.5497 30.4842L2.01458 30.6602C1.52193 29.7227 1.10846 28.7324 0.787357 27.7025L1.99698 26.7386C1.80344 26.0255 1.65389 25.2905 1.56152 24.5423L0.074777 24.1153C0.0263919 23.5871 0 23.0458 0 22.5044C0 21.9674 0.0219931 21.4393 0.0703782 20.9155L1.55272 20.4886C1.64949 19.7359 1.79465 18.9965 1.98819 18.279L0.77856 17.3195C1.09966 16.2896 1.50873 15.2993 2.00578 14.3574L3.54091 14.5335C3.91479 13.882 4.33266 13.2614 4.78572 12.6717L4.03356 11.3204C4.73734 10.4974 5.49391 9.73592 6.31645 9.0537ZM5.46751 27.5616C7.01584 31.25 10.2093 34.0757 14.124 35.1276L8.30904 27.5616L4.45143 22.5396C4.45583 24.3222 4.81651 26.0167 5.46751 27.5616ZM8.83247 27.5616L4.94847 22.5044L17.511 6.15757L30.0735 22.5044L26.1851 27.5616L17.5066 38.8512L8.83247 27.5616ZM25.2482 27.5616C25.4198 27.3372 25.5781 27.1303 25.7101 26.963V24.4542L23.3216 27.5616L23.2028 27.7157V27.566V23.2879H25.0063V21.7606H23.2028V19.3706H25.7101V17.8433H22.7058C22.09 17.8433 21.5885 18.3451 21.5885 18.9613V27.5616V29.0493C21.5885 29.6699 22.09 30.1673 22.7058 30.1673C23.0577 30.1673 23.37 30.0088 23.5679 29.7535C23.5679 29.7535 24.5268 28.5035 25.2482 27.5616ZM20.5329 27.5616V17.0379H18.9186L17.511 23.6664L16.1034 17.0379H14.4891V27.5616V33.7016L16.1034 35.8055V27.5616H16.5125L16.1034 25.5458V27.5616H16.5125L17.511 32.4604L18.5095 27.5616L18.923 25.5458V27.5616V35.8055L20.5373 33.7016V27.5616H20.5329ZM13.4335 27.5616V22.8785C13.4335 22.2623 12.932 21.7606 12.3162 21.7606H10.372V19.3706H11.8192V20.7218H13.4335V18.9613C13.4335 18.3451 12.932 17.8433 12.3162 17.8433H9.87495C9.25474 17.8433 8.7577 18.3451 8.7577 18.9613V22.1699C8.7577 22.7861 9.25914 23.2879 9.87495 23.2879H11.8192V27.5616V27.7113L11.7004 27.5616L10.3676 25.8319V24.1989H8.7533V25.8671C8.7533 26.1224 8.84567 26.36 8.99083 26.5493C8.99083 26.5493 9.33392 27.0026 9.76939 27.566C9.82657 27.6408 9.88375 27.7157 9.94533 27.7949C10.0465 27.6849 10.1785 27.6056 10.3236 27.566H10.328C10.394 27.5484 10.4644 27.5396 10.5347 27.5396C10.6007 27.5396 10.6711 27.5484 10.7327 27.566H10.7371C11.0846 27.654 11.3397 27.971 11.3397 28.3451C11.3397 28.6532 11.1682 28.9173 10.913 29.0537L11.4541 29.7579C11.652 30.0132 11.9643 30.1717 12.3162 30.1717C12.932 30.1717 13.4335 29.6699 13.4335 29.0537V27.5616ZM29.5501 27.5616C30.1967 26.0167 30.5574 24.3178 30.5662 22.5396L26.7086 27.5616L20.8936 35.1276C24.8127 34.0757 28.0018 31.25 29.5501 27.5616ZM11.784 17.2975C12.5581 16.7562 13.3851 16.1576 13.737 15.8143C14.5815 15 14.907 14.5335 14.797 14.0009C14.5903 12.9798 13.2443 13.2174 12.9496 13.2923C12.7825 13.3363 12.6417 13.5123 12.6417 13.5123C12.6417 13.5123 12.7209 12.993 12.8704 12.7025C12.9716 12.5088 13.0508 12.3636 13.3851 12.2975C13.7897 12.2139 14.7662 12.0291 14.7662 12.0291C14.7662 12.0291 14.7135 11.3644 14.9862 11.1004C15.2941 10.8011 15.6416 10.3521 17.423 10.2113C18.4391 10.132 19.6883 10.2949 20.6472 11.0871C21.3158 11.6373 21.9008 12.5924 22.2219 13.169C22.5562 13.772 23.5371 15.8979 24.1705 17.2975H22.7014C21.9096 17.2975 21.2454 17.8565 21.0783 18.596V16.4921H18.4743L17.5066 21.0343L16.5433 16.4921H13.9393V18.596C13.7722 17.8521 13.108 17.2975 12.3162 17.2975H11.784ZM16.9744 12.4208C16.7016 12.4296 16.4729 12.2403 16.4201 11.985L16.1914 12.0114L16.1738 11.853L17.7133 11.6637L17.7309 11.8222L17.5022 11.8486C17.511 12.1611 17.2779 12.412 16.9744 12.4208ZM20.8936 9.88556L30.5662 22.4736C30.5486 16.4437 26.4534 11.3732 20.8936 9.88556ZM4.45143 22.4692L14.1196 9.88116C8.56416 11.3732 4.46902 16.4437 4.45143 22.4692ZM9.92774 28.3407C9.92774 28.0062 10.1961 27.7377 10.5304 27.7377C10.8646 27.7377 11.133 28.0062 11.133 28.3407C11.133 28.6752 10.8646 28.9437 10.5304 28.9437C10.1961 28.9437 9.92774 28.6752 9.92774 28.3407Z" fill="#E30613"/>
<path fill-rule="evenodd" clip-rule="evenodd" d="M56.8373 35.2009C57.028 35.8306 57.132 36.4995 57.132 37.1944C57.132 40.9555 54.0894 44 50.3403 44C46.5912 44 43.5485 40.9511 43.5485 37.1944C43.5485 36.5038 43.6525 35.8306 43.8433 35.2009H41V8.79913H73.1209V0.351792H83.4754V8.79913H87.8313C87.6406 8.16938 87.5366 7.50054 87.5366 6.80565C87.5366 3.04452 90.5792 0 94.3326 0C98.0861 0 101.124 3.04886 101.124 6.80565C101.124 7.50054 101.02 8.16938 100.83 8.79913H113.234V0.351792H123.589V8.79913H156V25.8371H148.016V35.2009H56.8373ZM56.7853 11.7047V17.5592H52.23V14.2671H48.4549V20.3648H56.7853V32.2953H43.8953V25.7329H48.4505V29.7286H52.2256V22.9273H43.8909V11.7047H56.7853ZM80.5715 11.7047H88.5508V32.2953H83.9955V14.2671H80.5715V32.2953H76.0162V3.25299H80.5715V11.7047ZM112.632 11.7047V32.2953H108.072V14.2671H104.648V32.2953H100.093V11.7047H112.632ZM120.68 32.2953H116.125V3.25299H120.68V32.2953ZM96.6038 32.2953H92.0485V11.7047H96.6038V32.2953ZM153.096 11.7047V22.9273H148.541V14.2671H145.117V32.2953H140.557V11.7047H153.096ZM46.4481 37.19C46.4481 35.0358 48.1905 33.2899 50.3403 33.2899C52.49 33.2899 54.2367 35.0402 54.2367 37.19C54.2367 39.3442 52.4944 41.0945 50.3403 41.0945C48.1861 41.0945 46.4481 39.3485 46.4481 37.19ZM90.4275 6.80565C90.4275 4.65147 92.1699 2.90554 94.324 2.90554C96.4738 2.90554 98.2161 4.65147 98.2161 6.80565C98.2161 8.95983 96.4738 10.7101 94.324 10.7101C92.1742 10.7058 90.4275 8.95983 90.4275 6.80565ZM60.2786 11.7047H72.5228V32.2953H60.2786V20.3648H67.9675V14.2671H64.8339V17.5592H60.2786V11.7047ZM67.9675 22.9273H64.8339V29.7286H67.9675V22.9273ZM124.174 11.7047H137.064V22.9273H128.729V29.7286H132.504V25.7329H137.064V32.2953H124.174V11.7047ZM128.729 20.3648H132.504V14.2671H128.729V20.3648Z" fill="black"/>
<path fill-rule="evenodd" clip-rule="evenodd" d="M156.005 3C156.552 3 157.024 3.19491 157.415 3.58475C157.807 3.97458 158 4.44492 158 5C158 5.54661 157.807 6.01695 157.415 6.40678C157.024 6.80085 156.552 7 156.005 7C155.453 7 154.976 6.80509 154.585 6.41525C154.193 6.02542 154 5.55508 154 5C154 4.44915 154.198 3.97458 154.585 3.58475C154.981 3.19491 155.453 3 156.005 3ZM156.005 3.22034C155.519 3.22034 155.099 3.39407 154.755 3.74153C154.41 4.08898 154.236 4.50847 154.236 5C154.236 5.48305 154.41 5.90254 154.755 6.25C155.099 6.6017 155.514 6.77542 156.005 6.77542C156.491 6.77542 156.901 6.6017 157.241 6.25424C157.585 5.90254 157.759 5.48305 157.759 4.99576C157.759 4.50847 157.585 4.09322 157.241 3.74576C156.901 3.39831 156.491 3.22034 156.005 3.22034ZM155.146 3.87712H156.104C156.33 3.87712 156.524 3.92373 156.679 4.02119C156.835 4.11441 156.91 4.26695 156.91 4.48305C156.91 4.61864 156.873 4.73729 156.802 4.83898C156.726 4.94068 156.627 5.01271 156.495 5.05932C156.722 5.13136 156.844 5.3178 156.868 5.62712C156.896 5.9322 156.92 6.11017 156.943 6.16102H156.665C156.646 6.12712 156.632 6.08898 156.623 6.04661C156.618 6 156.613 5.95339 156.613 5.90678V5.73305C156.613 5.51695 156.575 5.36864 156.509 5.28814C156.439 5.20339 156.269 5.16102 156 5.16102H155.434V6.16525H155.151V3.87712H155.146ZM155.429 4.07203V4.97034H156.005C156.189 4.97034 156.335 4.93644 156.453 4.86441C156.571 4.79661 156.627 4.67373 156.627 4.5C156.627 4.34322 156.571 4.23305 156.467 4.16949C156.363 4.10593 156.226 4.07203 156.052 4.07203H155.429Z" fill="#253539"/>
</svg>
